# xmcd CD database file
#
# Track frame offsets:
#	150
#	48567
#	86927
#	114657
#	149185
#
# Disc length: 2415 seconds
#
# Revision: 0
# Processed by: cddbd v1.5.1PL2 Copyright (c) Steve Scherf et al.
# Submitted via: CDex 1.60beta1-cs1
#
DISCID=4e096d05
DTITLE=Dexter Gordon - More Power!
DYEAR=1969
DGENRE=Jazz
TTITLE0=Lady Bird
TTITLE1=Meditation
TTITLE2=Fried Bananas
TTITLE3=Boston Bernie
TTITLE4=Sticky Wicket
EXTD=YEAR: 1969
EXTT0=
EXTT1=
EXTT2=
EXTT3=
EXTT4=
PLAYORDER=
